<?xml version="1.0" encoding="utf-8"?>
<!-- Generator: Adobe Illustrator 26.0.0, SVG Export Plug-In . SVG Version: 6.00 Build 0)  -->
<svg version="1.1" id="Layer_1" xmlns="http://www.w3.org/2000/svg" xmlns:xlink="http://www.w3.org/1999/xlink" x="0px" y="0px"
	 viewBox="0 0 1080 1080" style="enable-background:new 0 0 1080 1080;" xml:space="preserve">
<style type="text/css">
	.st0{clip-path:url(#SVGID_00000003802065121624677460000002336262745820037053_);fill:#005697;}
	.st1{clip-path:url(#SVGID_00000003802065121624677460000002336262745820037053_);}
	.st2{fill:#FFFFFF;}
</style>
<g>
	<defs>
		<path id="SVGID_1_" d="M964.3,1080H115.6C51.8,1080,0,1028.2,0,964.4V115.6C0,51.8,51.8,0,115.6,0h848.7
			c63.9,0,115.6,51.8,115.6,115.6v848.7C1080,1028.2,1028.2,1080,964.3,1080z"/>
	</defs>
	<clipPath id="SVGID_00000086651507980095120440000015333690606560432771_">
		<use xlink:href="#SVGID_1_"  style="overflow:visible;"/>
	</clipPath>
	
		<rect x="0" y="0" style="clip-path:url(#SVGID_00000086651507980095120440000015333690606560432771_);fill:#005697;" width="1080" height="1080"/>
	<g style="clip-path:url(#SVGID_00000086651507980095120440000015333690606560432771_);">
		<g>
			<path class="st2" d="M613,951.7c-2.5-69-17-143.9-80.1-189.8c-63.1-45.9-165.9-46.7-206-83c-40.1-36.3-45.2-89.2-45.2-89.2
				s-27.4,151-17.4,240.5c3.8,34,97.9,55.8,127,60c27.3,3.9,98.8,9.9,131.6-9.1c0,0,19.4,6.9,22.9,17c3.6,10.1,54,215.5-117.7,340.1
				c-26.8,19.4-55.5,34.4-85,44.8c3.5,12.6,7,25.3,10.6,37.9c43-8.8,82.2-25.2,113.3-48.9C618.3,1156.8,615.6,1020.7,613,951.7z
				 M341.8,830.6c-19.3,1.5-28.3,1.8-43-7c-14.7-8.8,18.1-68.9,18.1-68.9c30.1,30,93,55,92,61C407.9,821.6,361.1,829.1,341.8,830.6z
				"/>
		</g>
		<g>
			<path class="st2" d="M717.5,770.6c-2.8-29.2-6.5-53-11.8-75.2c-0.5-2.1-1-4.2-1.6-6.2l-2.2-8.6l11.7-7c2.7-1.6,5.4-3.2,8-4.8
				c15.7-9.6,30.8-21.3,45.3-32.6c5.1-3.9,5.5-5.9,5.5-5.9c0,0-0.2-1.8-3.9-5.5c-10.1-10.3-20.3-18.4-30.5-24.1
				c-67.2-37.5-421.8-265.1-431-272.3l-0.8-0.6c-6.5-5.1-15.5-12.1-15.7-22.1c-0.6-37.7-1-77.9,1-117.6c1.1-22.7,12-43.5,32.3-62
				c60.4-55,128.9-98.7,188.4-135.3c146.4-90.2,262.2-151.9,375.3-200.2c35.9-15.3,73.9-27.5,113.1-36.2c8.3-1.9,15.7-2.8,22.6-2.8
				c14.8,0,26.6,4.4,35.1,13.1c10.8,11,15.8,28.2,15.3,52.8c-0.5,29.3-8.7,57.6-24.3,84.2c-22.9,39.1-92.1,90.8-95,93l-16.8-16.2
				c0.5-0.7,47.6-68.8,69.9-103.2c2.4-3.7,3.4-6.2,3.8-7.6c-1-0.2-2.7-0.5-5.3-0.5c-0.5,0-1.1,0-1.6,0c-21.4,0.8-46,2.3-65.9,10.7
				C889.3-101.4,824.5-73.4,761.4-40c-147.7,78.2-257,144.4-354.3,214.7c-17,12.3-33.5,26.1-49.5,39.6c-6.5,5.5-13,10.9-19.6,16.3
				C412,277.4,760.6,500.9,785.8,528c27.6,29.6,40.7,76.5,34.9,125.3c-5.5,47.1-27.9,88-59.9,109.3c-6.8,4.6-13.6,9.2-20.4,13.8
				l-21,14.2L717.5,770.6z"/>
			<path class="st2" d="M1003.4-234c-37.8,8.4-75.4,20.3-111,35.5C762.1-142.9,639.1-73.3,518.7,0.9C453.3,41.1,389,82.9,332,134.9
				c-16.3,14.8-27.4,32.5-28.5,53.9c-2,38.9-1.6,77.9-1,116.8c0.1,4.6,7.1,9.9,11.9,13.6c8.1,6.4,360.5,232.8,429.4,271.3
				c12.2,6.8,23.5,16.1,33.2,26.1c10.7,11,9.4,19.6-2.8,29.1c-15.1,11.7-30.2,23.4-46.4,33.3c-4.1,2.5-8.2,4.9-12.2,7.4
				c0.5,2.1,1.1,4.3,1.6,6.4c6,25.2,9.6,51,12.1,76.8c8.3-5.6,16.6-11.2,24.9-16.8c63.1-42.1,75.7-159.8,22.9-216.6
				c-25.4-27.3-452.6-301-457.7-303.3c4.5-4.6,7.2-8.1,10.5-10.8c23.3-19.1,45.9-39.2,70.3-56.8c112.7-81.4,233-150.6,355.7-215.5
				c57.8-30.6,117.9-57.3,178.2-82.6c21.3-8.9,46.5-10.7,70-11.6c20.2-0.7,24.6,9.2,13.5,26.4c-22.7,35-70.1,103.5-70.1,103.5
				s69.9-52.1,91.9-89.5c13.9-23.7,22.2-50.3,22.7-78.4C1062.8-226.1,1045.6-243.3,1003.4-234z"/>
		</g>
		<g>
			<path class="st2" d="M429.8,478.5c0-0.9,0-1.8,0-2.7C429.9,475.9,429.8,476.8,429.8,478.5z"/>
			<path class="st2" d="M518,547.5c-87.1-23.7-92.8-84.8-93-98.2c-4,243,73.1,274.7,79.1,278.3c6,3.6,1.1,6.7,1.1,6.7
				c-65.7,20.8-53.7,120.3-53.7,120.3l20.6-6.2c8.1-17.7,18.5-35.7,84.9-60c66.4-24.3,162.4,51.3,162.4,51.3s5.9-94-12.7-161.4
				C688,610.8,616.1,574.2,518,547.5z M586.9,690.5c-94.3-14.2-147.5-87.3-148-138.7c0,0,18.4,52.1,87.6,72.6
				c69.2,20.5,182.3,64.4,180.8,120.5C707.3,744.9,681.2,704.7,586.9,690.5z"/>
		</g>
		<path class="st2" d="M303,362.9c0,0-54.5,55.3-62,61c0,0,153.3,75.9,81.9,134.7C322.9,558.6,553.1,465.8,303,362.9z"/>
	</g>
</g>
</svg>
